<?xml version="1.0" encoding="UTF-8"?>
<svg xmlns="http://www.w3.org/2000/svg" viewBox="0 0 1024 1024" width="1024" height="1024">
  <defs>
    <mask id="d-cutout">
      <rect x="0" y="0" width="1024" height="1024" fill="white"/>
      <path fill="black" d="M 770.39 452.34 C 773.86 451.85, 777.49 451.89, 781.00 451.87 C 791.35 451.92, 801.09 451.36, 811.41 452.95 C 821.05 454.76, 830.27 457.71, 838.12 463.80 C 847.31 469.89, 854.33 479.26, 858.38 489.47 C 865.17 509.16, 863.65 531.53, 852.23 549.23 C 844.79 560.74, 832.73 569.67, 819.51 573.36 C 809.13 576.74, 798.77 576.39, 788.00 576.37 C 783.93 576.29, 779.37 576.46, 775.47 575.28 C 772.95 574.49, 771.38 572.49, 770.69 570.01 C 769.32 564.99, 769.77 559.20, 769.66 554.00 C 769.83 526.34, 769.56 498.66, 769.83 470.99 C 769.84 464.89, 769.71 458.43, 770.39 452.33 Z"/>
    </mask>
  </defs>
  <g mask="url(#d-cutout)">
    <path fill="#FFFFFF" d="M 662.48 312.55 C 662.14 313.43, 661.82 314.29, 661.47 315.18 C 653.85 316.90, 645.78 319.17, 638.90 322.98 C 633.92 326.09, 629.00 329.71, 624.64 333.62 C 613.19 344.35, 606.24 357.18, 598.75 370.74 C 594.22 379.75, 589.48 388.67, 584.75 397.58 C 579.28 408.71, 573.12 419.46, 567.95 430.75 C 563.69 430.87, 559.44 430.90, 555.20 431.20 C 563.15 417.53, 569.79 403.05, 577.00 388.96 C 580.00 383.48, 582.66 377.87, 585.36 372.22 C 589.21 364.83, 593.27 356.92, 595.17 348.76 C 596.63 340.50, 595.47 330.10, 588.66 324.33 C 582.76 318.80, 573.58 317.47, 566.03 315.69 C 564.20 315.30, 563.15 314.08, 561.74 312.95 C 595.31 312.39, 628.90 312.95, 662.48 312.54 Z"/>
    <path fill="#FFFFFF" d="M 194.84 312.58 C 233.16 312.68, 271.69 312.76, 310.00 312.65 C 314.06 312.61, 318.06 312.42, 322.11 312.79 C 318.99 316.25, 314.28 315.99, 310.07 317.12 C 303.05 318.43, 296.60 321.42, 292.01 327.02 C 287.42 333.00, 286.64 340.72, 288.17 347.94 C 289.49 353.49, 292.61 358.90, 294.89 364.13 C 301.48 378.67, 309.09 392.68, 315.94 407.10 C 319.87 415.15, 324.11 423.05, 328.46 430.88 C 314.66 430.89, 300.83 430.75, 287.03 431.17 C 281.38 420.96, 276.82 410.08, 271.22 399.82 C 262.67 382.66, 254.81 365.27, 245.35 348.58 C 238.43 336.14, 227.23 325.28, 213.83 320.10 C 207.92 317.56, 201.49 316.67, 195.55 314.33 C 195.19 313.45, 195.20 313.44, 194.84 312.58 Z"/>
    <path fill="#FFFFFF" d="M 373.16 312.93 C 379.39 312.37, 385.73 312.70, 392.00 312.66 C 426.44 312.90, 460.92 312.55, 495.27 312.73 C 494.19 313.71, 493.49 315.13, 491.99 315.39 C 484.31 317.31, 476.41 317.98, 469.57 322.55 C 464.16 326.21, 461.22 332.53, 461.22 339.00 C 461.01 344.98, 462.84 350.40, 465.22 355.80 C 472.22 372.04, 480.81 387.56, 488.32 403.60 C 493.33 412.66, 497.07 422.20, 502.57 430.92 C 488.86 430.86, 475.13 430.75, 461.42 431.17 C 457.38 423.86, 453.56 416.46, 450.11 408.85 C 439.58 388.61, 430.05 367.87, 419.09 347.88 C 415.04 340.59, 410.25 333.56, 403.76 328.23 C 397.99 323.14, 391.11 319.59, 383.73 317.47 C 379.91 316.25, 376.23 315.78, 373.15 312.93 Z"/>
    <path fill="#FFFFFF" d="M 722.94 312.87 C 730.95 312.55, 738.97 312.83, 747.01 312.63 C 774.23 312.82, 801.46 312.73, 828.69 312.55 C 828.69 313.23, 828.68 313.91, 828.67 314.60 C 822.53 316.88, 816.09 317.27, 810.04 319.88 C 800.47 323.61, 791.90 329.41, 784.60 336.61 C 773.68 346.74, 766.73 359.01, 760.03 372.11 C 749.74 391.48, 740.05 410.94, 730.19 430.55 C 726.00 430.67, 721.81 430.74, 717.60 430.74 C 719.88 427.43, 721.64 423.87, 723.34 420.22 C 732.01 403.44, 740.30 386.50, 748.66 369.54 C 752.39 360.89, 757.10 352.63, 757.55 343.00 C 757.62 336.39, 755.75 328.92, 750.56 324.40 C 746.74 321.15, 741.50 319.24, 736.77 317.73 C 732.69 316.34, 728.29 316.37, 724.26 315.00 C 723.59 313.94, 723.60 313.92, 722.93 312.86 Z"/>
    <path fill="#FFFFFF" d="M 178.00 446.51 C 180.61 446.41, 183.04 446.62, 185.56 447.38 C 181.47 449.46, 177.30 450.56, 174.51 454.49 C 172.20 457.64, 172.04 461.37, 172.78 465.06 C 174.50 473.13, 178.29 481.09, 181.10 488.86 C 184.73 499.16, 188.96 509.21, 192.52 519.53 C 196.43 528.58, 199.66 537.85, 203.05 547.10 C 205.43 540.50, 207.86 533.93, 210.68 527.51 C 214.80 517.38, 218.55 507.12, 223.08 497.14 C 224.18 495.00, 223.80 493.01, 223.09 490.82 C 220.46 483.01, 217.07 475.53, 214.27 467.78 C 212.07 462.22, 209.93 456.73, 205.35 452.64 C 202.83 450.38, 199.90 449.42, 197.09 447.67 C 200.67 446.09, 205.05 446.97, 208.99 446.79 C 224.12 447.03, 239.28 446.36, 254.37 446.85 C 250.10 450.04, 245.47 450.75, 242.62 455.55 C 239.22 460.94, 240.86 466.82, 242.60 472.47 C 251.29 497.15, 260.43 521.69, 269.69 546.16 C 271.96 536.05, 276.40 527.60, 279.77 517.78 C 284.87 503.34, 290.39 489.01, 295.05 474.43 C 297.03 468.09, 297.97 459.20, 293.23 453.81 C 289.63 449.63, 283.86 450.84, 280.56 446.80 C 313.25 446.44, 346.06 446.86, 378.73 446.43 C 378.53 446.98, 378.29 447.52, 378.09 448.07 C 372.92 450.07, 367.81 452.07, 366.36 458.02 C 364.99 465.64, 369.43 474.06, 372.22 480.94 C 380.54 502.96, 389.45 524.81, 397.26 547.00 C 400.47 539.48, 403.12 531.73, 406.35 524.23 C 410.59 514.42, 413.95 504.47, 418.75 494.86 C 416.03 485.93, 412.08 477.90, 408.94 469.04 C 407.00 463.85, 405.17 458.76, 401.52 454.48 C 398.76 451.30, 394.27 449.68, 390.90 447.00 C 403.23 446.32, 415.65 446.83, 428.01 446.72 C 434.84 446.81, 441.82 446.29, 448.62 446.96 C 445.92 449.10, 442.54 449.78, 439.82 451.81 C 436.36 454.61, 435.09 458.69, 434.94 463.00 C 435.16 469.18, 437.66 474.47, 439.78 480.19 C 442.72 487.11, 444.99 494.26, 447.92 501.18 C 451.30 509.21, 453.87 517.50, 457.18 525.53 C 459.60 532.13, 461.58 538.78, 464.67 545.11 C 467.96 535.47, 471.86 526.07, 475.38 516.51 C 480.69 501.45, 487.33 486.94, 492.45 471.78 C 494.01 466.27, 494.94 458.97, 490.63 454.42 C 487.02 450.14, 482.10 450.33, 477.93 446.91 C 483.54 446.31, 489.32 446.70, 495.00 446.64 C 519.64 446.46, 544.34 446.65, 569.00 446.72 C 573.54 446.69, 577.95 446.30, 582.48 446.71 C 578.53 449.95, 573.90 450.23, 571.20 454.17 C 568.25 458.19, 568.27 462.89, 569.69 467.49 C 572.88 478.02, 577.38 488.27, 581.33 498.55 C 587.47 514.77, 594.24 530.63, 600.04 547.01 C 602.82 537.56, 607.23 528.94, 610.84 519.82 C 614.07 511.05, 618.56 502.89, 621.44 493.98 C 616.30 481.84, 612.73 468.29, 605.88 457.15 C 602.73 452.04, 597.90 450.47, 593.54 446.84 C 609.68 446.29, 625.86 447.13, 642.00 446.65 C 645.07 446.54, 648.08 446.61, 651.15 446.89 C 649.17 448.59, 646.85 449.56, 644.54 450.68 C 640.62 452.58, 637.76 456.59, 637.60 460.99 C 637.39 468.11, 640.48 474.50, 642.90 481.00 C 645.73 488.71, 648.89 496.28, 651.52 504.05 C 654.32 511.18, 657.37 518.19, 659.73 525.50 C 662.54 532.39, 664.89 539.36, 667.06 546.47 C 669.29 540.55, 671.24 534.59, 673.87 528.85 C 678.98 516.51, 683.54 503.94, 688.47 491.51 C 690.79 485.85, 692.43 479.96, 694.57 474.24 C 696.37 469.29, 697.74 463.80, 696.22 458.60 C 694.99 455.18, 692.40 451.68, 688.82 450.56 C 686.09 449.49, 683.52 449.53, 681.75 446.93 C 713.84 446.15, 745.91 446.80, 777.99 446.56 C 794.61 446.70, 810.42 445.93, 827.00 448.32 C 840.79 450.46, 853.98 455.41, 865.18 463.86 C 876.30 472.36, 884.35 484.97, 887.69 498.52 C 889.89 508.88, 889.63 519.76, 886.73 529.96 C 882.48 546.09, 871.57 559.81, 857.47 568.49 C 851.97 572.21, 846.32 574.90, 839.99 576.87 C 828.75 580.23, 816.70 581.80, 804.99 582.22 C 782.00 582.44, 759.01 582.10, 736.01 582.32 C 733.02 582.40, 730.05 582.38, 727.08 582.04 C 731.48 579.08, 736.14 578.96, 739.70 574.70 C 744.53 569.33, 744.59 561.79, 744.74 555.00 C 744.56 527.03, 744.81 498.94, 744.69 470.98 C 744.56 466.02, 744.53 459.60, 741.34 455.52 C 736.78 449.83, 728.21 447.49, 721.51 450.66 C 714.26 453.84, 710.09 459.90, 706.77 466.79 C 702.48 474.73, 699.97 483.27, 696.37 491.50 C 691.42 503.56, 687.08 515.87, 681.99 527.87 C 678.52 536.43, 675.36 545.07, 671.61 553.51 C 667.90 563.17, 663.53 572.56, 660.01 582.30 C 658.87 582.39, 657.74 582.48, 656.58 582.56 C 649.23 563.72, 641.51 544.92, 633.96 526.14 C 630.78 518.03, 627.36 510.17, 624.86 501.82 C 621.45 510.14, 618.57 518.63, 614.81 526.81 C 608.89 542.12, 602.70 557.32, 596.39 572.48 C 595.01 575.75, 594.27 579.48, 592.41 582.47 C 591.71 582.64, 590.98 582.71, 590.26 582.74 C 586.06 573.49, 581.98 564.00, 578.35 554.51 C 569.97 535.13, 561.98 515.66, 553.88 496.15 C 548.75 485.01, 545.10 473.16, 539.62 462.26 C 536.64 456.13, 531.07 451.45, 524.44 449.84 C 520.86 449.04, 517.73 450.98, 514.74 452.70 C 508.49 456.69, 504.15 463.76, 501.36 470.49 C 489.56 498.58, 479.08 527.26, 467.74 555.53 C 464.10 564.57, 461.24 574.11, 456.52 582.64 C 455.65 582.61, 454.81 582.57, 453.95 582.52 C 451.32 575.11, 448.19 568.02, 445.08 560.81 C 437.73 541.03, 429.22 521.75, 422.00 501.90 C 414.91 520.36, 407.17 538.59, 400.01 557.03 C 396.68 565.67, 393.08 574.19, 389.50 582.71 C 388.62 582.68, 387.75 582.67, 386.88 582.67 C 385.18 577.77, 382.88 573.14, 380.88 568.40 C 375.18 553.85, 368.59 539.71, 363.01 525.13 C 355.48 506.35, 347.32 487.81, 339.86 469.00 C 337.64 463.69, 335.38 457.94, 330.96 454.03 C 328.65 451.85, 325.87 450.61, 322.94 449.45 C 320.32 450.60, 317.80 451.70, 315.73 453.76 C 309.78 458.94, 306.81 466.44, 303.74 473.52 C 299.98 483.79, 295.90 493.91, 292.32 504.24 C 288.79 513.19, 285.24 522.08, 282.12 531.18 C 277.14 543.36, 273.06 555.88, 267.99 568.01 C 266.02 572.85, 264.31 577.75, 262.19 582.52 C 261.07 582.49, 259.96 582.45, 258.87 582.43 C 251.09 562.99, 243.33 543.55, 235.71 524.06 C 232.62 516.70, 229.52 509.64, 227.69 501.86 C 224.29 508.75, 222.11 515.92, 219.21 523.07 C 211.07 542.87, 203.70 562.93, 195.18 582.58 C 194.17 582.52, 193.16 582.46, 192.14 582.40 C 186.80 570.04, 182.25 557.38, 176.98 545.00 C 173.78 537.96, 171.14 530.74, 168.45 523.50 C 163.82 512.36, 159.60 501.08, 155.06 489.87 C 151.58 482.12, 148.97 474.05, 145.66 466.23 C 143.45 461.17, 140.79 456.10, 136.59 452.37 C 134.22 450.20, 131.01 449.50, 128.88 447.21 C 132.45 446.45, 136.37 446.72, 140.01 446.71 C 152.66 446.73, 165.32 446.75, 178.01 446.50 Z"/>
    <path fill="#FFFFFF" d="M 769.83 471.00 C 769.57 498.67, 769.85 526.34, 769.65 554.00 C 769.78 559.19, 769.32 564.99, 770.69 570.02 C 771.38 572.50, 772.95 574.49, 775.47 575.28 C 779.37 576.46, 783.93 576.29, 787.99 576.37 C 798.77 576.39, 809.13 576.74, 819.52 573.36 C 832.72 569.67, 844.77 560.74, 852.22 549.22 C 863.64 531.53, 865.17 509.17, 858.38 489.47 C 854.35 479.26, 847.31 469.90, 838.11 463.81 C 830.29 457.69, 821.05 454.75, 811.41 452.95 C 801.09 451.35, 791.36 451.93, 781.01 451.86 C 777.49 451.88, 773.86 451.85, 770.38 452.34 C 769.72 458.43, 769.84 464.90, 769.84 471.01 Z"/>
    <path fill="#FFFFFF" d="M 526.51 489.62 C 533.92 504.07, 540.23 519.01, 547.68 533.45 C 553.31 544.23, 558.36 555.29, 563.92 566.11 C 569.84 578.41, 576.49 590.39, 582.24 602.77 C 591.92 622.10, 601.46 641.47, 610.82 660.98 C 612.37 657.22, 614.11 653.65, 616.11 650.12 C 621.68 640.18, 626.47 629.86, 631.98 619.90 C 636.33 611.52, 640.68 603.17, 644.69 594.64 C 648.69 594.72, 652.69 594.78, 656.69 594.72 C 652.90 600.77, 649.82 607.51, 646.67 613.91 C 637.15 632.13, 628.20 650.68, 619.17 669.14 C 611.58 684.01, 604.49 699.09, 596.82 713.92 C 592.55 706.13, 588.59 698.20, 584.71 690.20 C 577.63 675.37, 569.98 660.86, 563.10 645.91 C 560.25 640.33, 557.45 634.76, 554.88 629.06 C 549.40 618.24, 543.97 607.37, 538.67 596.45 C 535.79 591.49, 533.58 586.24, 531.05 581.11 C 524.30 567.83, 517.88 554.41, 511.07 541.15 C 508.05 548.46, 503.74 555.05, 500.30 562.21 C 490.73 580.42, 481.42 598.77, 472.16 617.15 C 467.56 627.10, 462.23 636.68, 457.30 646.46 C 451.09 659.12, 444.52 671.58, 438.28 684.21 C 433.11 693.97, 428.70 704.25, 423.14 713.79 C 417.89 704.90, 413.61 695.36, 409.00 686.14 C 405.35 677.58, 400.59 669.64, 396.64 661.22 C 391.71 650.94, 386.34 640.87, 381.66 630.45 C 375.24 618.63, 369.97 606.19, 363.22 594.54 C 377.08 594.64, 390.97 594.79, 404.82 594.52 C 409.98 603.52, 413.78 613.14, 418.75 622.24 C 425.03 635.28, 431.77 648.09, 438.04 661.13 C 446.34 645.09, 454.48 628.88, 462.73 612.78 C 468.40 602.32, 473.54 591.57, 479.00 581.00 C 483.66 572.86, 487.41 564.25, 492.08 556.10 C 498.98 541.78, 506.63 527.85, 513.70 513.60 C 518.50 505.84, 521.45 497.20, 526.51 489.62 Z"/>
  </g>
</svg>