<?xml version="1.0" encoding="UTF-8"?>
<svg id="Layer_1" data-name="Layer 1" xmlns="http://www.w3.org/2000/svg" viewBox="0 0 442.67 106.05">
  <path d="M65.81,1.69c7.58-5.03,18.67,1.95,17.78,10.89-.08,8.74-11.12,14.35-18.23,9.3-7.39-4.26-7.09-16.24,.45-20.2Z"/>
  <path d="M337.39,.5c6.51-.08,13.01-.06,19.52,.02,.04,34.66,0,69.35,0,104.03-6.51,.04-13.01,0-19.52,0,0-4.1-.02-8.19,0-12.27-10.27,15.56-33.95,18.06-47.98,6.32-19.84-15.66-18.99-50.17,1.51-64.92,13.77-10.55,34.87-8.17,46.46,4.61-.08-12.59-.04-25.19,0-37.78Zm-29.03,45.71c-15.83,5.6-17.78,30.39-3.27,38.62,12.9,8.23,31.96-1.95,32.11-17.28,1.66-14.92-14.96-27.44-28.84-21.33Z"/>
  <path d="M16.24,33.33c13.92-10.34,34.89-7.73,46.28,5.26,.04-3.33,.08-6.64,.11-9.93,6.98-.13,13.96-.09,20.93,.04,.02,3.42,.06,6.83,.11,10.27,10.97-16.3,40.22-16.53,48.36,2.55,8.28-13.28,26.74-18.7,40.77-11.57,9.61,4.8,14.79,15.7,15.07,26.1,.23,16.17,.13,32.34,.08,48.53-6.49-.04-12.97,0-19.46-.04-.08-14.18,.06-28.37-.08-42.55-.23-5.65-1.42-12.18-6.68-15.32-6.62-3.95-16.24-2.87-21.29,3.16-4.44,4.67-4.67,11.5-4.65,17.55,.11,12.37-.11,24.74,.02,37.1-6.52,.13-13.07,.08-19.59,.04-.09-14.98,.15-29.96-.09-44.93,.04-6.47-4.43-13.14-10.93-14.52-4.82-.49-10.29-.76-14.3,2.46-5.16,3.57-7.34,10.12-7.3,16.17-.06,13.62,0,27.25-.02,40.87-7,.02-13.98,.04-20.97,0,0-4.14-.04-8.28-.13-12.41-10.25,15.22-33.17,18.42-47.47,7.15-20.78-15.58-19.63-50.95,1.23-65.96Zm17.83,12.65c-9.61,3.12-15.36,13.73-13.6,23.54,1,10.68,11.4,19.48,22.2,17.98,12.46-.68,21.14-14.11,18.44-25.93-1.72-12.14-15.66-19.91-27.04-15.6Z"/>
  <path d="M219.29,28.84c10.31-3.29,21.77-2.21,31.37,2.7,11.03,5.94,18.84,17.4,20.25,29.86,2.48,16.36-6.28,34.1-21.67,40.79-18.84,9.21-44.63,1.38-53.46-18.08-10.46-20.48,.78-49.28,23.51-55.28Zm3.8,16.96c-12.25,5.03-16.21,21.75-9.57,32.68,6.13,11.16,23.03,13.54,32.19,4.78,9.25-8.19,9.59-24.06,.96-32.79-5.73-6.54-15.77-7.66-23.58-4.67Z"/>
  <path d="M375.31,34.91c13.62-11.84,36.46-10.12,48.02,3.82,.06-3.37,.11-6.71,.15-10.04,6.39-.04,12.8-.04,19.19,0,0,25.28,0,50.57-.02,75.85-6.41,.02-12.8,.02-19.21,0,.02-4.22-.02-8.45-.08-12.65-10.51,16.98-36.84,18.63-50.44,4.58-16.66-16.26-15.66-46.69,2.38-61.56Zm19.84,10.97c-13.16,4.14-17.66,21.88-10.27,32.85,5.86,9.85,20.65,11.74,29.44,4.84,11.03-7.87,11.06-26.51,.26-34.61-5.35-4.44-12.97-5.03-19.44-3.08Z"/>
</svg>